# xmcd
#
# Track frame offsets: 
#        182
#        15830
#        31187
#        43995
#        63602
#        76452
#        83027
#        100795
#        118080
#        134190
#        147755
#        160040
#        172997
#        177480
#        186355
#        197355
#        209225
#        221092
#
# Disc length: 3109 seconds
#
# Revision: 20
# Processed by: cddbd v1.5.2PL0 Copyright (c) Steve Scherf et al.
# Submitted via: ExactAudioCopy v1.1
#
DISCID=050c2312
DTITLE=R.E.M. - Lifes Rich Pageant (IRS Vintage)
DYEAR=1993
DGENRE=Rock
TTITLE0=Begin The Begin
TTITLE1=Hyena
TTITLE2=Just A Touch
TTITLE3=I Believe
TTITLE4=These Days
TTITLE5=The Flowers Of Guatemala
TTITLE6=Cuyahoga
TTITLE7=What If We Give It Away?
TTITLE8=Fall On Me
TTITLE9=Swan Swan H
TTITLE10=Just A Touch
TTITLE11=Superman
TTITLE12=Tired Of Singing Trouble
TTITLE13=Rotary Ten
TTITLE14=Toys In The Attic
TTITLE15=Just A Touch (Live In Studio)
TTITLE16=Dream (All I Have To Do)
TTITLE17=Swan Swan H (Acoustic Version)
EXTD=YEAR: 1993
EXTT0=
EXTT1=
EXTT2=
EXTT3=
EXTT4=
EXTT5=
EXTT6=
EXTT7=
EXTT8=
EXTT9=
EXTT10=
EXTT11=
EXTT12=
EXTT13=
EXTT14=
EXTT15=
EXTT16=
EXTT17=
PLAYORDER=
